HIERARCHY
ROOT RightShoulder
{
	OFFSET -1.644901 -0.003980 3.801207
	CHANNELS 6 Xposition Yposition Zposition Xrotation Yrotation Zrotation
	JOINT RightElbow
	{
		OFFSET -2.454748 0.000000 0.000000
		CHANNELS 6 Xposition Yposition Zposition Xrotation Yrotation Zrotation
		JOINT RightWrist
		{
			OFFSET -2.035185 -0.001238 0.000000
			CHANNELS 6 Xposition Yposition Zposition Xrotation Yrotation Zrotation
			End Site
			{
				OFFSET -1.535909 0.000000 0.000000
			}
		}
	}
}
MOTION
Frames: 37
Frame Time: 0.041667
-1.644901 -0.003980 3.801207 -37.391686 -32.070627 11.139062 -2.454749 -0.000000 0.000000 -55.543672 -62.944510 11.797040 -2.035186 -0.001238 -0.000001 1888.158914 222.934724 -614.301750 
-1.644901 -0.003980 3.801207 -36.740434 -31.603074 11.591021 -2.454749 -0.000000 -0.000000 -61.812809 -56.189675 10.699093 -2.035186 -0.001238 0.000000 1904.398809 209.684185 -584.577204 
-1.644901 -0.003980 3.801207 -39.489521 -33.325992 13.313801 -2.454749 -0.000000 -0.000000 -61.473601 -59.063624 16.590763 -2.035186 -0.001238 -0.000000 1904.406240 179.928903 -538.114541 
-1.644901 -0.003980 3.801207 -36.090354 -33.921052 17.300881 -2.454749 0.000000 -0.000000 -52.945963 -56.837242 29.359804 -2.035185 -0.001238 0.000001 1904.610599 174.335196 -507.726429 
-1.644901 -0.003980 3.801207 -34.450231 -33.965732 18.575683 -2.454749 -0.000000 0.000001 -43.440993 -54.992097 41.369442 -2.035186 -0.001238 0.000000 1914.810421 173.440633 -499.195577 
-1.644901 -0.003980 3.801207 -32.767720 -32.225184 19.106785 -2.454749 -0.000000 0.000000 -37.161567 -52.948122 46.992367 -2.035185 -0.001238 0.000000 1931.122661 170.247151 -492.120157 
-1.644901 -0.003980 3.801207 -29.310514 -29.987502 19.514376 -2.454748 -0.000000 0.000000 -32.762669 -47.405563 50.964583 -2.035186 -0.001238 0.000000 1944.059805 166.566717 -488.715827 
-1.644901 -0.003980 3.801207 -28.208471 -28.100800 18.205193 -2.454748 0.000000 0.000000 -29.125265 -45.278820 52.109921 -2.035186 -0.001238 0.000000 1955.086681 162.444711 -486.536067 
-1.644901 -0.003980 3.801207 -26.824796 -26.935193 16.613018 -2.454748 -0.000000 0.000000 -26.120547 -41.968213 52.481039 -2.035186 -0.001238 0.000000 1961.782452 160.347625 -485.433565 
-1.644901 -0.003980 3.801207 -25.115220 -24.897838 15.155922 -2.454749 -0.000000 0.000001 -23.991752 -39.503338 51.337027 -2.035186 -0.001238 -0.000000 1967.943392 158.297475 -485.630931 
-1.644901 -0.003980 3.801207 -24.486759 -23.326638 13.454522 -2.454748 -0.000001 -0.000000 -20.844638 -35.402312 49.583017 -2.035185 -0.001238 -0.000000 1971.845670 156.937352 -485.991619 
-1.644901 -0.003980 3.801207 -24.301704 -22.309706 11.513933 -2.454748 -0.000000 0.000000 -18.356374 -32.262586 47.305562 -2.035185 -0.001238 -0.000000 1975.240001 155.909586 -486.131775 
-1.644901 -0.003980 3.801207 -24.235359 -22.005271 9.391849 -2.454749 -0.000000 0.000001 -15.644722 -29.189828 44.763632 -2.035185 -0.001238 -0.000000 1977.890770 154.993836 -486.638465 
-1.644901 -0.003980 3.801207 -24.504977 -22.070158 7.375666 -2.454749 -0.000000 0.000001 -12.207560 -25.967771 41.581232 -2.035185 -0.001238 0.000000 1979.643451 154.537838 -487.522784 
-1.644901 -0.003980 3.801207 -25.279474 -22.347378 4.889050 -2.454749 -0.000000 0.000001 -8.112954 -22.905548 38.554673 -2.035186 -0.001238 -0.000000 1981.515688 153.904803 -489.192137 
-1.644901 -0.003980 3.801207 -25.211063 -23.136668 2.501955 -2.454749 -0.000000 0.000000 -4.592129 -19.747525 35.203177 -2.035185 -0.001238 0.000000 1982.511912 153.862415 -490.379606 
-1.644901 -0.003980 3.801207 -26.771457 -24.698763 -0.003988 -2.454749 -0.000000 0.000000 -0.761102 -17.356549 31.089396 -2.035186 -0.001238 -0.000000 1982.807195 153.805642 -491.447301 
-1.644901 -0.003980 3.801207 -28.386934 -26.542458 -3.156474 -2.454749 -0.000000 0.000000 3.120918 -13.762298 26.914676 -2.035186 -0.001238 0.000000 1983.676650 154.001778 -493.061411 
-1.644901 -0.003980 3.801207 -31.258231 -29.002349 -6.924409 -2.454748 -0.000000 0.000000 3.136076 -11.912105 21.771657 -2.035185 -0.001238 0.000001 1983.793146 154.060395 -493.496795 
-1.644901 -0.003980 3.801207 -36.719958 -31.897687 -11.020005 -2.454749 0.000000 0.000000 3.668139 -9.965598 15.759692 -2.035186 -0.001238 -0.000000 1983.577203 153.941781 -494.709399 
-1.644901 -0.003980 3.801207 -41.191887 -34.900644 -15.056008 -2.454748 0.000000 0.000000 2.806194 -7.464004 9.157346 -2.035186 -0.001238 0.000000 1984.155310 153.703258 -496.463447 
-1.644901 -0.003980 3.801207 -47.648882 -38.106114 -20.044056 -2.454749 0.000000 -0.000000 1.395763 -5.075564 3.751102 -2.035186 -0.001238 -0.000000 1984.301312 153.419873 -499.232078 
-1.644901 -0.003980 3.801207 -54.419956 -40.036581 -26.287177 -2.454748 -0.000000 0.000000 1.949959 -3.122669 0.580753 -2.035186 -0.001238 0.000000 1986.105575 152.255599 -505.510551 
-1.644901 -0.003980 3.801207 -59.617880 -40.979424 -32.827426 -2.454748 0.000000 0.000000 2.993330 -1.610116 -0.517690 -2.035186 -0.001238 0.000001 1986.267095 151.758361 -510.169615 
-1.644901 -0.003980 3.801207 -60.293652 -41.348425 -37.834337 -2.454748 -0.000000 0.000000 5.523414 0.729592 -0.904174 -2.035185 -0.001238 -0.000000 1987.413474 151.797594 -516.580157 
-1.644901 -0.003980 3.801207 -61.009927 -42.245027 -42.809990 -2.454748 0.000000 0.000000 8.507297 3.457199 -1.566610 -2.035185 -0.001238 -0.000000 1988.096493 151.948459 -521.467185 
-1.644901 -0.003980 3.801207 -59.296533 -42.628481 -47.019056 -2.454749 -0.000000 0.000000 13.524126 5.308184 -0.713399 -2.035185 -0.001238 0.000000 1987.270750 153.221661 -528.864498 
-1.644901 -0.003980 3.801207 -57.829771 -43.615792 -51.180838 -2.454749 0.000000 -0.000000 16.631389 6.909709 0.912511 -2.035185 -0.001238 0.000000 1987.230971 153.554278 -535.640046 
-1.644901 -0.003980 3.801207 -56.715787 -44.878076 -54.775153 -2.454748 0.000000 0.000000 20.241293 8.305526 1.647746 -2.035186 -0.001238 0.000000 1986.556477 154.790228 -542.648421 
-1.644901 -0.003980 3.801207 -55.945885 -45.027957 -57.570906 -2.454749 -0.000000 0.000000 23.803301 8.298052 3.627370 -2.035185 -0.001238 0.000000 1986.817663 157.309843 -550.973930 
-1.644901 -0.003980 3.801207 -53.468893 -45.102693 -58.818440 -2.454749 -0.000000 0.000000 30.190146 6.883167 6.927538 -2.035185 -0.001238 -0.000000 1985.871272 161.696054 -558.383374 
-1.644901 -0.003980 3.801207 -47.994964 -46.624019 -57.719361 -2.454748 -0.000000 0.000001 37.777158 5.673265 10.379927 -2.035185 -0.001238 0.000000 1985.501240 164.742537 -562.085008 
-1.644901 -0.003980 3.801207 -43.283284 -46.168855 -56.278372 -2.454749 -0.000000 -0.000000 46.109347 3.066642 14.978077 -2.035185 -0.001238 0.000001 1984.437697 167.322901 -565.422293 
-1.644901 -0.003980 3.801207 -38.344989 -46.496789 -54.188330 -2.454748 -0.000000 -0.000000 51.513898 0.139392 19.345609 -2.035186 -0.001238 -0.000000 1985.824062 169.992412 -568.672808 
-1.644901 -0.003980 3.801207 -34.266414 -45.368787 -52.728931 -2.454748 -0.000000 -0.000000 58.508336 -2.258641 25.203191 -2.035186 -0.001238 -0.000000 1983.391203 173.692790 -570.483245 
-1.644901 -0.003980 3.801207 -30.565834 -45.078951 -50.912930 -2.454748 -0.000000 0.000000 62.709934 -6.099428 30.431976 -2.035185 -0.001238 -0.000000 1982.726107 176.611043 -572.071182 
-1.644901 -0.003980 3.801207 -27.261127 -45.337098 -49.334695 -2.454748 -0.000000 0.000000 67.274146 -8.387588 35.117950 -2.035185 -0.001238 0.000000 1980.552904 179.148909 -572.459574 
